<svg xmlns="http://www.w3.org/2000/svg" xmlns:xlink="http://www.w3.org/1999/xlink" width="6613" zoomAndPan="magnify" viewBox="0 0 4959.75 2834.249882" height="3779" preserveAspectRatio="xMidYMid meet" version="1.0"><defs><clipPath id="cfab9bad1e"><path d="M 5.277344 336 L 798.5 336 L 798.5 1091.121094 L 5.277344 1091.121094 Z M 5.277344 336 " clip-rule="nonzero"/></clipPath><clipPath id="a04979b26c"><path d="M 795.273438 633.222656 C 800.640625 627.984375 797.679688 618.867188 790.253906 617.789062 L 532.046875 580.269531 C 529.097656 579.839844 526.546875 577.992188 525.226562 575.320312 L 409.765625 341.34375 C 406.445312 334.617188 396.847656 334.617188 393.527344 341.34375 L 278.054688 575.320312 C 276.734375 577.992188 274.1875 579.839844 271.238281 580.269531 L 13.039062 617.789062 C 5.621094 618.867188 2.652344 627.984375 8.019531 633.222656 L 194.863281 815.34375 C 196.992188 817.425781 197.972656 820.421875 197.460938 823.351562 L 153.355469 1080.511719 C 152.804688 1083.699219 153.945312 1086.550781 155.933594 1088.5 C 154.59375 1090.179688 153.84375 1091.117188 153.84375 1091.117188 L 162.324219 1091.097656 C 162.472656 1091.097656 162.621094 1091.109375 162.773438 1091.097656 L 636.792969 1090.058594 C 643.429688 1093.546875 651.1875 1087.910156 649.929688 1080.519531 L 605.832031 823.351562 C 605.332031 820.414062 606.300781 817.425781 608.429688 815.34375 Z M 795.273438 633.222656 " clip-rule="nonzero"/></clipPath><clipPath id="baf246c9dd"><path d="M 0.277344 0 L 793.5 0 L 793.5 755.121094 L 0.277344 755.121094 Z M 0.277344 0 " clip-rule="nonzero"/></clipPath><clipPath id="430f7b1f27"><path d="M 790.273438 297.222656 C 795.640625 291.984375 792.679688 282.867188 785.253906 281.789062 L 527.046875 244.269531 C 524.097656 243.839844 521.546875 241.992188 520.226562 239.320312 L 404.765625 5.34375 C 401.445312 -1.382812 391.847656 -1.382812 388.527344 5.34375 L 273.054688 239.320312 C 271.734375 241.992188 269.1875 243.839844 266.238281 244.269531 L 8.039062 281.789062 C 0.621094 282.867188 -2.347656 291.984375 3.019531 297.222656 L 189.863281 479.34375 C 191.992188 481.425781 192.972656 484.421875 192.460938 487.351562 L 148.355469 744.511719 C 147.804688 747.699219 148.945312 750.550781 150.933594 752.5 C 149.59375 754.179688 148.84375 755.117188 148.84375 755.117188 L 157.324219 755.097656 C 157.472656 755.097656 157.621094 755.109375 157.773438 755.097656 L 631.792969 754.058594 C 638.429688 757.546875 646.1875 751.910156 644.929688 744.519531 L 600.832031 487.351562 C 600.332031 484.414062 601.300781 481.425781 603.429688 479.34375 Z M 790.273438 297.222656 " clip-rule="nonzero"/></clipPath><clipPath id="8c7ae9f26b"><rect x="0" width="794" y="0" height="756"/></clipPath><clipPath id="57f85b5b16"><path d="M 303 608.59375 L 497.792969 608.59375 L 497.792969 803 L 303 803 Z M 303 608.59375 " clip-rule="nonzero"/></clipPath><clipPath id="8524b98ef0"><path d="M 497.117188 705.710938 C 497.117188 759.261719 453.699219 802.679688 400.148438 802.679688 C 346.59375 802.679688 303.179688 759.261719 303.179688 705.710938 C 303.179688 652.15625 346.59375 608.742188 400.148438 608.742188 C 453.699219 608.742188 497.117188 652.15625 497.117188 705.710938 " clip-rule="nonzero"/></clipPath><clipPath id="1dc57536e1"><path d="M 0.101562 0.59375 L 194.210938 0.59375 L 194.210938 194.894531 L 0.101562 194.894531 Z M 0.101562 0.59375 " clip-rule="nonzero"/></clipPath><clipPath id="34626a715f"><path d="M 194.117188 97.710938 C 194.117188 151.261719 150.699219 194.679688 97.148438 194.679688 C 43.59375 194.679688 0.179688 151.261719 0.179688 97.710938 C 0.179688 44.15625 43.59375 0.742188 97.148438 0.742188 C 150.699219 0.742188 194.117188 44.15625 194.117188 97.710938 " clip-rule="nonzero"/></clipPath><clipPath id="0871b24d5d"><rect x="0" width="195" y="0" height="195"/></clipPath><clipPath id="9fb980c630"><path d="M 243.046875 879.328125 L 558.734375 879.328125 L 558.734375 1037.171875 L 243.046875 1037.171875 Z M 243.046875 879.328125 " clip-rule="nonzero"/></clipPath><clipPath id="cf3b559348"><path d="M 243.195312 1037.105469 C 243.195312 950.140625 313.695312 879.65625 400.648438 879.65625 C 487.597656 879.65625 558.097656 950.152344 558.097656 1037.105469 " clip-rule="nonzero"/></clipPath><clipPath id="e81ca866c0"><path d="M 0.117188 0.433594 L 315.15625 0.433594 L 315.15625 158.171875 L 0.117188 158.171875 Z M 0.117188 0.433594 " clip-rule="nonzero"/></clipPath><clipPath id="cd67962102"><path d="M 0.195312 158.105469 C 0.195312 71.140625 70.695312 0.65625 157.648438 0.65625 C 244.597656 0.65625 315.097656 71.152344 315.097656 158.105469 " clip-rule="nonzero"/></clipPath><clipPath id="c54988ebb2"><rect x="0" width="316" y="0" height="159"/></clipPath><clipPath id="7f63774552"><path d="M 425 222 L 886 222 L 886 522 L 425 522 Z M 425 222 " clip-rule="nonzero"/></clipPath><clipPath id="8af19eca92"><path d="M 444.144531 238.347656 C 445.664062 237.828125 491.847656 222.3125 555.21875 222.3125 C 661.042969 222.3125 813.707031 266.417969 884.625 485.160156 C 889.390625 499.863281 881.335938 515.648438 866.628906 520.417969 C 851.925781 525.1875 836.140625 517.128906 831.371094 502.425781 C 769.589844 311.882812 642.609375 278.296875 555.21875 278.296875 C 498.855469 278.296875 460.40625 291.949219 462.117188 291.371094 C 447.472656 296.328125 431.585938 288.492188 426.617188 273.847656 C 421.648438 259.203125 429.496094 243.316406 444.144531 238.347656 Z M 444.144531 238.347656 " clip-rule="nonzero"/></clipPath><clipPath id="a878c0ddf5"><path d="M 0 0.246094 L 461 0.246094 L 461 300 L 0 300 Z M 0 0.246094 " clip-rule="nonzero"/></clipPath><clipPath id="bcb546a595"><path d="M 19.144531 16.347656 C 20.664062 15.828125 66.847656 0.3125 130.21875 0.3125 C 236.042969 0.3125 388.707031 44.417969 459.625 263.160156 C 464.390625 277.863281 456.335938 293.648438 441.628906 298.417969 C 426.925781 303.1875 411.140625 295.128906 406.371094 280.425781 C 344.589844 89.882812 217.609375 56.296875 130.21875 56.296875 C 73.855469 56.296875 35.40625 69.949219 37.117188 69.371094 C 22.472656 74.328125 6.585938 66.492188 1.617188 51.847656 C -3.351562 37.203125 4.496094 21.316406 19.144531 16.347656 Z M 19.144531 16.347656 " clip-rule="nonzero"/></clipPath><clipPath id="79a25dc1d0"><rect x="0" width="461" y="0" height="300"/></clipPath><clipPath id="5214075033"><path d="M 372 5.1875 L 1097 5.1875 L 1097 469 L 372 469 Z M 372 5.1875 " clip-rule="nonzero"/></clipPath><clipPath id="be487b00e6"><path d="M 392.121094 25.027344 C 393.609375 24.574219 458.777344 5.191406 550.660156 5.191406 C 719.136719 5.191406 977.953125 71.269531 1095.546875 432.125 C 1100.335938 446.820312 1092.308594 462.625 1077.601562 467.414062 C 1062.898438 472.203125 1047.101562 464.175781 1042.3125 449.472656 C 934.316406 118.046875 702.371094 61.175781 550.660156 61.175781 C 464.898438 61.175781 406.605469 79.128906 408.175781 78.660156 C 393.371094 83.097656 377.765625 74.679688 373.324219 59.875 C 368.886719 45.070312 377.304688 29.464844 392.109375 25.027344 Z M 392.121094 25.027344 " clip-rule="nonzero"/></clipPath><clipPath id="6fc49bfef8"><path d="M 0 0.1875 L 725 0.1875 L 725 464 L 0 464 Z M 0 0.1875 " clip-rule="nonzero"/></clipPath><clipPath id="ada4df9c60"><path d="M 20.121094 20.027344 C 21.609375 19.574219 86.777344 0.191406 178.660156 0.191406 C 347.136719 0.191406 605.953125 66.269531 723.546875 427.125 C 728.335938 441.820312 720.308594 457.625 705.601562 462.414062 C 690.898438 467.203125 675.101562 459.175781 670.3125 444.472656 C 562.316406 113.046875 330.371094 56.175781 178.660156 56.175781 C 92.898438 56.175781 34.605469 74.128906 36.175781 73.660156 C 21.371094 78.097656 5.765625 69.679688 1.324219 54.875 C -3.113281 40.070312 5.304688 24.464844 20.109375 20.027344 Z M 20.121094 20.027344 " clip-rule="nonzero"/></clipPath><clipPath id="5a2286a18e"><rect x="0" width="725" y="0" height="464"/></clipPath><clipPath id="ed9ad59045"><rect x="0" width="1103" y="0" height="1097"/></clipPath></defs><g transform="matrix(1, 0, 0, 1, 1770, 809)"><g clip-path="url(#ed9ad59045)"><g clip-path="url(#cfab9bad1e)"><g clip-path="url(#a04979b26c)"><g transform="matrix(1, 0, 0, 1, 5, 336)"><g clip-path="url(#8c7ae9f26b)"><g clip-path="url(#baf246c9dd)"><g clip-path="url(#430f7b1f27)"><rect x="-3580.349" width="8570.448" fill="#f10702" y="-2176.666957" height="4897.583795" fill-opacity="1"/></g></g></g></g></g></g><g clip-path="url(#57f85b5b16)"><g clip-path="url(#8524b98ef0)"><g transform="matrix(1, 0, 0, 1, 303, 608)"><g clip-path="url(#0871b24d5d)"><g clip-path="url(#1dc57536e1)"><g clip-path="url(#34626a715f)"><rect x="-3878.349" width="8570.448" fill="#f7f7f7" y="-2448.666957" height="4897.583795" fill-opacity="1"/></g></g></g></g></g></g><g clip-path="url(#9fb980c630)"><g clip-path="url(#cf3b559348)"><g transform="matrix(1, 0, 0, 1, 243, 879)"><g clip-path="url(#c54988ebb2)"><g clip-path="url(#e81ca866c0)"><g clip-path="url(#cd67962102)"><rect x="-3818.349" width="8570.448" fill="#f7f7f7" y="-2719.666957" height="4897.583795" fill-opacity="1"/></g></g></g></g></g></g><g clip-path="url(#7f63774552)"><g clip-path="url(#8af19eca92)"><g transform="matrix(1, 0, 0, 1, 425, 222)"><g clip-path="url(#79a25dc1d0)"><g clip-path="url(#a878c0ddf5)"><g clip-path="url(#bcb546a595)"><rect x="-4000.349" width="8570.448" fill="#f10702" y="-2062.666957" height="4897.583795" fill-opacity="1"/></g></g></g></g></g></g><g clip-path="url(#5214075033)"><g clip-path="url(#be487b00e6)"><g transform="matrix(1, 0, 0, 1, 372, 5)"><g clip-path="url(#5a2286a18e)"><g clip-path="url(#6fc49bfef8)"><g clip-path="url(#ada4df9c60)"><rect x="-3947.349" width="8570.448" fill="#f10702" y="-1845.666957" height="4897.583795" fill-opacity="1"/></g></g></g></g></g></g></g></g></svg>