<svg width="658" height="690" viewBox="0 0 658 690" fill="none" xmlns="http://www.w3.org/2000/svg">
<path d="M316.792 506.09L337.707 628.59C340.207 637.59 336.207 638.09 335.207 638.09H211.707C210.874 515.09 205.215 270.086 210.711 263.09C212.895 260.309 216.874 261.09 218.207 263.09C236.707 299.923 273.255 374.7 274.707 378.09C276.206 381.59 277.707 382.923 278.707 383.09C321.707 389.59 409.708 402.59 411.207 403.09C412.706 403.59 413.206 406.59 411.207 409.09C409.208 411.59 317.878 500.09 316.792 501.59C315.706 503.09 316.792 506.09 316.792 506.09Z" fill="#D3F36B"/>
<path d="M112.071 506.09L91.1563 628.59C88.6563 637.59 92.6563 638.09 93.6563 638.09H217.156C217.733 552.989 220.619 409.487 220.523 326.816C220.48 289.998 219.846 265.245 218.152 263.09C215.968 260.309 211.99 261.09 210.656 263.09C192.156 299.923 155.608 374.7 154.156 378.09C152.657 381.59 151.156 382.923 150.156 383.09C107.156 389.59 19.1556 402.586 17.6564 403.086C16.1572 403.586 15.6572 406.59 17.6564 409.09C19.6556 411.59 110.985 500.09 112.071 501.59C113.157 503.09 112.071 506.09 112.071 506.09Z" fill="#D3F36B"/>
<circle cx="213.715" cy="445.586" r="48.5" fill="white"/>
<path d="M292.215 611.086C292.215 590.399 283.997 570.559 269.369 555.932C254.741 541.304 234.902 533.086 214.215 533.086C193.528 533.086 173.688 541.304 159.061 555.932C144.433 570.559 136.215 590.399 136.215 611.086L214.215 611.086H292.215Z" fill="white"/>
<circle cx="213.715" cy="445.586" r="48.5" fill="white"/>
<path d="M292.215 611.086C292.215 590.399 283.997 570.559 269.369 555.932C254.741 541.304 234.902 533.086 214.215 533.086C193.528 533.086 173.688 541.304 159.061 555.932C144.433 570.559 136.215 590.399 136.215 611.086L214.215 611.086H292.215Z" fill="white"/>
<path d="M441.438 357.833C451.443 357.827 459.415 349.285 457.474 339.47C453.494 319.338 445.506 299.826 433.908 282.089C418.812 259.004 398.117 239.718 373.846 226.117C349.575 212.515 322.559 205.065 295.439 204.492C274.72 204.055 254.482 207.644 235.871 214.984C226.513 218.674 223.601 230.028 228.929 238.56V238.56C233.858 246.453 244.063 248.977 252.782 245.726C266.732 240.525 281.798 237.994 297.206 238.319C318.347 238.765 339.406 244.573 358.326 255.176C377.245 265.778 393.377 280.812 405.144 298.807C413.897 312.191 420.012 326.874 423.208 342.036C425.066 350.851 432.428 357.838 441.438 357.833V357.833Z" fill="#D3F36B"/>
<path d="M545.705 330.901C555.467 331.314 563.288 322.839 561.295 313.273C554.592 281.1 540.973 249.471 521.259 220.507C497.791 186.029 466.454 156.451 430.175 134.537C393.895 112.623 353.858 99.088 313.804 95.1974C280.483 91.9608 248.055 95.4864 218.606 105.458C209.177 108.65 205.719 119.815 210.896 128.316V128.316C215.218 135.414 224.118 138.114 231.964 135.374C257.834 126.34 286.426 123.105 315.823 125.961C350.437 129.323 385.037 141.02 416.389 159.958C447.742 178.895 474.823 204.456 495.103 234.252C512.697 260.1 524.673 288.404 530.251 317.145C531.72 324.717 537.999 330.575 545.705 330.901V330.901Z" fill="#D3F36B"/>
</svg>
