<svg xmlns="http://www.w3.org/2000/svg" xmlns:xlink="http://www.w3.org/1999/xlink" width="6613" zoomAndPan="magnify" viewBox="0 0 4959.75 2834.249882" height="3779" preserveAspectRatio="xMidYMid meet" version="1.0"><defs><clipPath id="22f2a6dd6c"><path d="M 0.53125 0 L 4958.96875 0 L 4958.96875 2833.5 L 0.53125 2833.5 Z M 0.53125 0 " clip-rule="nonzero"/></clipPath><clipPath id="fe3ea1068c"><path d="M 0.53125 0 L 4958.710938 0 L 4958.710938 2833.351562 L 0.53125 2833.351562 Z M 0.53125 0 " clip-rule="nonzero"/></clipPath><clipPath id="b8c28ad608"><path d="M 1623.457031 1002.070312 L 2944 1002.070312 L 2944 2260.089844 L 1623.457031 2260.089844 Z M 1623.457031 1002.070312 " clip-rule="nonzero"/></clipPath><clipPath id="a22ec244be"><path d="M 2939.335938 1497.378906 C 2948.277344 1488.652344 2943.347656 1473.464844 2930.976562 1471.667969 L 2500.882812 1409.175781 C 2495.96875 1408.457031 2491.722656 1405.378906 2489.527344 1400.933594 L 2297.199219 1011.203125 C 2291.671875 999.996094 2275.6875 999.996094 2270.15625 1011.203125 L 2077.816406 1400.933594 C 2075.617188 1405.378906 2071.371094 1408.457031 2066.460938 1409.175781 L 1636.382812 1471.667969 C 1624.027344 1473.464844 1619.082031 1488.652344 1628.023438 1497.378906 L 1939.242188 1800.734375 C 1942.789062 1804.199219 1944.421875 1809.195312 1943.570312 1814.074219 L 1870.105469 2242.417969 C 1869.1875 2247.730469 1871.085938 2252.476562 1874.402344 2255.722656 C 1872.167969 2258.519531 1870.921875 2260.085938 1870.921875 2260.085938 L 1885.039062 2260.050781 C 1885.289062 2260.050781 1885.539062 2260.070312 1885.789062 2260.050781 L 2675.355469 2258.320312 C 2686.414062 2264.132812 2699.335938 2254.742188 2697.238281 2242.433594 L 2623.789062 1814.074219 C 2622.953125 1809.179688 2624.570312 1804.199219 2628.117188 1800.734375 Z M 2939.335938 1497.378906 " clip-rule="nonzero"/></clipPath><clipPath id="9ddd1f3739"><path d="M 0.457031 0.0703125 L 1321 0.0703125 L 1321 1258.089844 L 0.457031 1258.089844 Z M 0.457031 0.0703125 " clip-rule="nonzero"/></clipPath><clipPath id="b83d1162c2"><path d="M 1316.335938 495.378906 C 1325.277344 486.652344 1320.347656 471.464844 1307.976562 469.667969 L 877.882812 407.175781 C 872.96875 406.457031 868.722656 403.378906 866.527344 398.933594 L 674.199219 9.203125 C 668.671875 -2.003906 652.6875 -2.003906 647.15625 9.203125 L 454.816406 398.933594 C 452.617188 403.378906 448.371094 406.457031 443.460938 407.175781 L 13.382812 469.667969 C 1.027344 471.464844 -3.917969 486.652344 5.023438 495.378906 L 316.242188 798.734375 C 319.789062 802.199219 321.421875 807.195312 320.570312 812.074219 L 247.105469 1240.417969 C 246.1875 1245.730469 248.085938 1250.476562 251.402344 1253.722656 C 249.167969 1256.519531 247.921875 1258.085938 247.921875 1258.085938 L 262.039062 1258.050781 C 262.289062 1258.050781 262.539062 1258.070312 262.789062 1258.050781 L 1052.355469 1256.320312 C 1063.414062 1262.132812 1076.335938 1252.742188 1074.238281 1240.433594 L 1000.789062 812.074219 C 999.953125 807.179688 1001.570312 802.199219 1005.117188 798.734375 Z M 1316.335938 495.378906 " clip-rule="nonzero"/></clipPath><clipPath id="1e913fa9bf"><rect x="0" width="1321" y="0" height="1259"/></clipPath><clipPath id="51c4e59ef6"><path d="M 2119.34375 1456.355469 L 2443 1456.355469 L 2443 1780 L 2119.34375 1780 Z M 2119.34375 1456.355469 " clip-rule="nonzero"/></clipPath><clipPath id="e4dd23f779"><path d="M 2442.703125 1618.117188 C 2442.703125 1707.320312 2370.382812 1779.636719 2281.179688 1779.636719 C 2191.980469 1779.636719 2119.660156 1707.320312 2119.660156 1618.117188 C 2119.660156 1528.914062 2191.980469 1456.597656 2281.179688 1456.597656 C 2370.382812 1456.597656 2442.703125 1528.914062 2442.703125 1618.117188 " clip-rule="nonzero"/></clipPath><clipPath id="f9d5683601"><path d="M 0.648438 0.414062 L 323.84375 0.414062 L 323.84375 323.847656 L 0.648438 323.847656 Z M 0.648438 0.414062 " clip-rule="nonzero"/></clipPath><clipPath id="280b99ba7d"><path d="M 323.703125 162.117188 C 323.703125 251.320312 251.382812 323.636719 162.179688 323.636719 C 72.980469 323.636719 0.660156 251.320312 0.660156 162.117188 C 0.660156 72.914062 72.980469 0.597656 162.179688 0.597656 C 251.382812 0.597656 323.703125 72.914062 323.703125 162.117188 " clip-rule="nonzero"/></clipPath><clipPath id="b88609fc46"><rect x="0" width="324" y="0" height="324"/></clipPath><clipPath id="e8ea632d36"><path d="M 2019.5 1907.3125 L 2545 1907.3125 L 2545 2170.230469 L 2019.5 2170.230469 Z M 2019.5 1907.3125 " clip-rule="nonzero"/></clipPath><clipPath id="55b5795a2f"><path d="M 2019.753906 2170.117188 C 2019.753906 2025.265625 2137.179688 1907.855469 2282.015625 1907.855469 C 2426.847656 1907.855469 2544.277344 2025.28125 2544.277344 2170.117188 " clip-rule="nonzero"/></clipPath><clipPath id="c3e1dbb07e"><path d="M 0.597656 0.734375 L 525.335938 0.734375 L 525.335938 263.226562 L 0.597656 263.226562 Z M 0.597656 0.734375 " clip-rule="nonzero"/></clipPath><clipPath id="9355c92782"><path d="M 0.753906 263.117188 C 0.753906 118.265625 118.179688 0.855469 263.015625 0.855469 C 407.847656 0.855469 525.277344 118.28125 525.277344 263.117188 " clip-rule="nonzero"/></clipPath><clipPath id="45f9543499"><rect x="0" width="526" y="0" height="264"/></clipPath><clipPath id="4cc8f92819"><path d="M 2322.355469 812.371094 L 3091 812.371094 L 3091 1312 L 2322.355469 1312 Z M 2322.355469 812.371094 " clip-rule="nonzero"/></clipPath><clipPath id="87d42a5c14"><path d="M 2354.464844 839.640625 C 2356.996094 838.777344 2433.925781 812.933594 2539.480469 812.933594 C 2715.753906 812.933594 2970.039062 886.398438 3088.164062 1250.75 C 3096.109375 1275.246094 3082.6875 1301.539062 3058.191406 1309.480469 C 3033.699219 1317.425781 3007.40625 1304.003906 2999.460938 1279.507812 C 2896.554688 962.128906 2685.046875 906.179688 2539.480469 906.179688 C 2445.597656 906.179688 2381.558594 928.925781 2384.40625 927.960938 C 2360.011719 936.21875 2333.550781 923.164062 2325.273438 898.769531 C 2317 874.375 2330.070312 847.917969 2354.464844 839.640625 Z M 2354.464844 839.640625 " clip-rule="nonzero"/></clipPath><clipPath id="fb79b4863c"><path d="M 0.355469 0.90625 L 769 0.90625 L 769 500 L 0.355469 500 Z M 0.355469 0.90625 " clip-rule="nonzero"/></clipPath><clipPath id="ad67085595"><path d="M 32.464844 27.640625 C 34.996094 26.777344 111.925781 0.933594 217.480469 0.933594 C 393.753906 0.933594 648.039062 74.398438 766.164062 438.75 C 774.109375 463.246094 760.6875 489.539062 736.191406 497.480469 C 711.699219 505.425781 685.40625 492.003906 677.460938 467.507812 C 574.554688 150.128906 363.046875 94.179688 217.480469 94.179688 C 123.597656 94.179688 59.558594 116.925781 62.40625 115.960938 C 38.011719 124.21875 11.550781 111.164062 3.273438 86.769531 C -5 62.375 8.070312 35.917969 32.464844 27.640625 Z M 32.464844 27.640625 " clip-rule="nonzero"/></clipPath><clipPath id="b569bc7b64"><rect x="0" width="769" y="0" height="500"/></clipPath><clipPath id="0f3f577a66"><path d="M 2234.160156 451.273438 L 3442 451.273438 L 3442 1224 L 2234.160156 1224 Z M 2234.160156 451.273438 " clip-rule="nonzero"/></clipPath><clipPath id="caa31b77df"><path d="M 2267.808594 484.3125 C 2270.292969 483.566406 2378.84375 451.277344 2531.886719 451.277344 C 2812.515625 451.277344 3243.625 561.34375 3439.496094 1162.414062 C 3447.472656 1186.894531 3434.101562 1213.21875 3409.605469 1221.195312 C 3385.113281 1229.171875 3358.804688 1215.800781 3350.828125 1191.304688 C 3170.941406 639.257812 2784.589844 544.527344 2531.886719 544.527344 C 2389.035156 544.527344 2291.9375 574.433594 2294.550781 573.648438 C 2269.890625 581.042969 2243.898438 567.023438 2236.503906 542.359375 C 2229.113281 517.699219 2243.132812 491.707031 2267.792969 484.3125 Z M 2267.808594 484.3125 " clip-rule="nonzero"/></clipPath><clipPath id="b902427d89"><path d="M 0.160156 0.273438 L 1208 0.273438 L 1208 773 L 0.160156 773 Z M 0.160156 0.273438 " clip-rule="nonzero"/></clipPath><clipPath id="6ccd7b040a"><path d="M 33.808594 33.3125 C 36.292969 32.566406 144.84375 0.277344 297.886719 0.277344 C 578.515625 0.277344 1009.625 110.34375 1205.496094 711.414062 C 1213.472656 735.894531 1200.101562 762.21875 1175.605469 770.195312 C 1151.113281 778.171875 1124.804688 764.800781 1116.828125 740.304688 C 936.941406 188.257812 550.589844 93.527344 297.886719 93.527344 C 155.035156 93.527344 57.9375 123.433594 60.550781 122.648438 C 35.890625 130.042969 9.898438 116.023438 2.503906 91.359375 C -4.886719 66.699219 9.132812 40.707031 33.792969 33.3125 Z M 33.808594 33.3125 " clip-rule="nonzero"/></clipPath><clipPath id="359e288693"><rect x="0" width="1208" y="0" height="773"/></clipPath><clipPath id="0994caaea0"><rect x="0" width="4959" y="0" height="2834"/></clipPath></defs><g clip-path="url(#22f2a6dd6c)"><path fill="#ffffff" d="M 0.53125 0 L 4958.96875 0 L 4958.96875 2833.5 L 0.53125 2833.5 Z M 0.53125 0 " fill-opacity="1" fill-rule="nonzero"/><g transform="matrix(1, 0, 0, 1, 0.000000000000000111, 0)"><g clip-path="url(#0994caaea0)"><g clip-path="url(#fe3ea1068c)"><path fill="#f7f7f7" d="M 0.53125 0 L 4958.710938 0 L 4958.710938 2833.355469 L 0.53125 2833.355469 Z M 0.53125 0 " fill-opacity="1" fill-rule="nonzero"/></g><g clip-path="url(#b8c28ad608)"><g clip-path="url(#a22ec244be)"><g transform="matrix(1, 0, 0, 1, 1623, 1002)"><g clip-path="url(#1e913fa9bf)"><g clip-path="url(#9ddd1f3739)"><g clip-path="url(#b83d1162c2)"><rect x="-3428.349" width="8570.448" fill="#f10702" y="-2033.666957" height="4897.583795" fill-opacity="1"/></g></g></g></g></g></g><g clip-path="url(#51c4e59ef6)"><g clip-path="url(#e4dd23f779)"><g transform="matrix(1, 0, 0, 1, 2119, 1456)"><g clip-path="url(#b88609fc46)"><g clip-path="url(#f9d5683601)"><g clip-path="url(#280b99ba7d)"><rect x="-3924.349" width="8570.448" fill="#f7f7f7" y="-2487.666957" height="4897.583795" fill-opacity="1"/></g></g></g></g></g></g><g clip-path="url(#e8ea632d36)"><g clip-path="url(#55b5795a2f)"><g transform="matrix(1, 0, 0, 1, 2019, 1907)"><g clip-path="url(#45f9543499)"><g clip-path="url(#c3e1dbb07e)"><g clip-path="url(#9355c92782)"><rect x="-3824.349" width="8570.448" fill="#f7f7f7" y="-2938.666957" height="4897.583795" fill-opacity="1"/></g></g></g></g></g></g><g clip-path="url(#4cc8f92819)"><g clip-path="url(#87d42a5c14)"><g transform="matrix(1, 0, 0, 1, 2322, 812)"><g clip-path="url(#b569bc7b64)"><g clip-path="url(#fb79b4863c)"><g clip-path="url(#ad67085595)"><rect x="-4127.349" width="8570.448" fill="#f10702" y="-1843.666957" height="4897.583795" fill-opacity="1"/></g></g></g></g></g></g><g clip-path="url(#0f3f577a66)"><g clip-path="url(#caa31b77df)"><g transform="matrix(1, 0, 0, 1, 2234, 451)"><g clip-path="url(#359e288693)"><g clip-path="url(#b902427d89)"><g clip-path="url(#6ccd7b040a)"><rect x="-4039.349" width="8570.448" fill="#f10702" y="-1482.666957" height="4897.583795" fill-opacity="1"/></g></g></g></g></g></g></g></g></g></svg>